<svg width="51" height="19" viewBox="0 0 51 19" fill="none" xmlns="http://www.w3.org/2000/svg">
<path d="M13.3311 17.7789C12.2972 18.7289 11.1685 18.5789 10.0819 18.1289C8.93206 17.6689 7.87714 17.6489 6.66399 18.1289C5.14491 18.7489 4.34317 18.5689 3.43595 17.7789C-1.71205 12.7489 -0.952507 5.0889 4.89173 4.8089C6.31587 4.8789 7.30749 5.5489 8.14087 5.6089C9.38567 5.3689 10.5777 4.6789 11.9069 4.7689C13.4998 4.8889 14.7025 5.4889 15.4936 6.5689C12.2023 8.4389 12.9829 12.5489 16 13.6989C15.3987 15.1989 14.6181 16.6889 13.3205 17.7889L13.3311 17.7789ZM8.03538 4.7489C7.87714 2.5189 9.78654 0.678901 11.9808 0.498901C12.2867 3.0789 9.51226 4.9989 8.03538 4.7489Z" fill="#FAFAFA"/>
<path d="M34 1.60352V17.3935C34.0001 17.4277 34.0103 17.4612 34.0294 17.4897C34.0484 17.5182 34.0754 17.5404 34.1071 17.5535C34.1387 17.5667 34.1735 17.5703 34.2071 17.5637C34.2408 17.5572 34.2717 17.5409 34.2961 17.5168L42.5177 9.4989L34.2961 1.48017C34.2717 1.45612 34.2408 1.4398 34.2071 1.43327C34.1735 1.42674 34.1387 1.43028 34.1071 1.44346C34.0754 1.45663 34.0484 1.47885 34.0294 1.50732C34.0103 1.53579 34.0001 1.56926 34 1.60352ZM45.965 6.2043L35.6561 0.524735L35.6497 0.521119C35.4721 0.424692 35.3034 0.664956 35.4488 0.804776L43.5298 8.53181L45.965 6.2043ZM35.4496 18.193C35.3034 18.3328 35.4721 18.5731 35.6505 18.4767L35.6569 18.4731L45.965 12.7935L43.5298 10.4652L35.4496 18.193ZM50.1267 8.49445L47.2479 6.90902L44.5411 9.4989L47.2479 12.0876L50.1267 10.5034C50.9097 10.0706 50.9097 8.92717 50.1267 8.49445Z" fill="#FAFAFA"/>
<line x1="25.35" y1="5.8489" x2="25.35" y2="13.1489" stroke="#FAFAFA" stroke-width="0.7" stroke-linecap="round"/>
</svg>
