<svg width="197" height="44" viewBox="0 0 197 44" fill="none" xmlns="http://www.w3.org/2000/svg">
<g clip-path="url(#clip0_738_354)">
<path d="M67.4306 33.302V43.4917H61.8531V34.2316C61.8531 31.2283 60.5659 28.7256 57.4912 28.7256C54.4522 28.7256 53.165 31.1926 53.165 34.1601V43.4917H47.5518V34.1958C47.5518 31.1926 46.2647 28.7256 43.2257 28.7256C40.1151 28.7256 38.8995 31.2283 38.8995 34.1958V43.4917H33.322V33.302C33.322 27.8675 36.5041 23.3269 42.7966 23.3269C46.5149 23.3269 49.2322 24.9715 50.3763 27.653C51.5919 24.9715 54.3449 23.3269 57.8487 23.3269C64.2128 23.2911 67.4306 27.8675 67.4306 33.302Z" fill="#FAFAFA"/>
<path d="M76.905 23.2908V43.4556H71.3275V23.2908H76.905ZM70.97 18.3926C70.97 20.1802 72.4358 21.5746 74.152 21.5746C75.9039 21.5746 77.2983 20.1445 77.2983 18.3926H70.97Z" fill="#FAFAFA"/>
<path d="M89.9907 37.8783V43.4558H84.2702C84.1987 43.4558 84.1272 43.4558 84.0914 43.4558C82.6255 43.3843 81.4814 42.419 81.4814 41.2391V23.291H87.0589V37.8783H89.9907Z" fill="#FAFAFA"/>
<path d="M91.7783 33.5522C91.7783 27.9389 95.8542 23.291 101.896 23.291C108.082 23.291 111.657 27.8674 111.657 33.1589V34.8035H97.177C97.5703 37.4135 99.5725 39.1297 102.361 39.1297C104.471 39.1297 106.258 38.0928 107.152 36.3052L111.443 38.4861C109.762 41.9899 106.509 43.9921 102.397 43.9921C96.3547 43.9921 91.7783 39.7732 91.7783 33.5522ZM106.115 31.7288C105.865 29.7266 104.22 28.1892 101.861 28.1892C99.4295 28.1892 97.8206 29.7623 97.4273 31.7288H106.115Z" fill="#FAFAFA"/>
<path d="M113.195 33.5522C113.195 27.9389 117.27 23.291 123.313 23.291C129.498 23.291 133.073 27.8674 133.073 33.1589V34.8035H118.593C118.987 37.4135 120.989 39.1297 123.778 39.1297C125.887 39.1297 127.675 38.0928 128.568 36.3052L132.859 38.4861C131.178 41.9899 127.925 43.9921 123.813 43.9921C117.735 43.9921 113.195 39.7732 113.195 33.5522ZM127.496 31.7288C127.246 29.7266 125.601 28.1892 123.241 28.1892C120.81 28.1892 119.201 29.7623 118.808 31.7288H127.496Z" fill="#FAFAFA"/>
<path d="M136.363 43.4913V18.3926H141.94V31.5855H143.799C144.014 31.228 144.228 30.8704 144.514 30.5129L149.913 24.0058H156.563L148.447 33.6949L156.492 43.4913H149.842L144.443 36.877C144.157 36.5194 143.942 36.1262 143.728 35.7329H141.94V43.4913H136.363Z" fill="#FAFAFA"/>
<path d="M155.741 33.5522C155.741 27.9389 159.817 23.291 165.859 23.291C172.044 23.291 175.62 27.8674 175.62 33.1589V34.8035H161.14C161.533 37.4135 163.535 39.1297 166.324 39.1297C168.433 39.1297 170.221 38.0928 171.115 36.3052L175.405 38.4861C173.725 41.9899 170.471 43.9921 166.36 43.9921C160.282 43.9921 155.741 39.7732 155.741 33.5522ZM170.042 31.7288C169.792 29.7266 168.147 28.1892 165.788 28.1892C163.356 28.1892 161.747 29.7623 161.354 31.7288H170.042Z" fill="#FAFAFA"/>
<path d="M177.121 33.5522C177.121 27.9389 181.197 23.291 187.239 23.291C193.425 23.291 197 27.8674 197 33.1589V34.8035H182.52C182.913 37.4135 184.916 39.1297 187.704 39.1297C189.814 39.1297 191.601 38.0928 192.495 36.3052L196.786 38.4861C195.105 41.9899 191.852 43.9921 187.74 43.9921C181.698 43.9921 177.121 39.7732 177.121 33.5522ZM191.458 31.7288C191.208 29.7266 189.563 28.1892 187.204 28.1892C184.773 28.1892 183.164 29.7623 182.77 31.7288H191.458Z" fill="#FAFAFA"/>
<path d="M13.3361 3.23352L15.6601 8.91828C16.1249 10.0624 16.0176 11.3495 15.374 12.3863L13.2646 15.8544C12.6211 16.8912 11.5485 17.5705 10.3329 17.6778L4.21906 18.2141C1.8951 18.4286 -0.0713244 16.5695 0.000181935 14.2455V14.2097C0.0716883 11.9215 2.18113 10.1696 4.46933 10.5629L8.50944 11.2422L9.08149 10.2411L6.65027 7.02336C5.2559 5.16419 5.82795 2.48271 7.86588 1.3386H7.90163C9.90381 0.194502 12.478 1.08833 13.3361 3.23352ZM7.72287 24.6854L11.477 19.8588C12.2278 18.8934 13.3719 18.3571 14.6232 18.3571L18.6991 18.4644C19.9147 18.5001 21.0588 19.1079 21.7739 20.109L25.2777 25.1502C26.6005 27.0451 25.957 29.6909 23.9191 30.7635C21.8811 31.8361 19.3427 30.8707 18.5203 28.6898L17.0902 24.9L15.9461 24.8642L14.3372 28.5825C13.4076 30.7277 10.8334 31.55 8.83122 30.3702H8.79546C6.82904 29.1903 6.29274 26.5088 7.72287 24.6854ZM28.9245 18.9649L22.8465 18.1068C21.6309 17.9281 20.594 17.213 19.9862 16.1404L18.0555 12.5651C17.4835 11.4925 17.4477 10.2054 17.9483 9.09704L20.5225 3.51955C21.4878 1.41011 24.0978 0.659294 26.0642 1.8749L26.1 1.91065C28.0664 3.16202 28.4955 5.8435 26.9938 7.63116L24.3838 10.7417L24.9559 11.7785L28.996 11.278C31.32 10.992 33.3579 12.8154 33.3221 15.1393V15.1751C33.2864 17.499 31.2127 19.2867 28.9245 18.9649Z" fill="#FAFAFA"/>
</g>
<defs>
<clipPath id="clip0_738_354">
<rect width="197" height="43.1541" fill="white" transform="translate(0 0.837891)"/>
</clipPath>
</defs>
</svg>
