<svg width="163" height="26" viewBox="0 0 163 26" fill="none" xmlns="http://www.w3.org/2000/svg">
<g clip-path="url(#clip0_722_754)">
<path d="M33.971 15.0824V25.2203H28.4219V16.0072C28.4219 13.0192 27.1413 10.5292 24.0821 10.5292C21.0585 10.5292 19.7779 12.9836 19.7779 15.9361V25.2203H14.1932V15.9717C14.1932 12.9836 12.9126 10.5292 9.889 10.5292C6.79427 10.5292 5.58483 13.0192 5.58483 15.9717V25.2203H0.0356445V15.0824C0.0356445 9.67547 3.20152 5.15786 9.46214 5.15786C13.1616 5.15786 15.865 6.79416 17.0033 9.46203C18.2128 6.79416 20.9518 5.15786 24.4378 5.15786C30.7696 5.12229 33.971 9.67547 33.971 15.0824Z" fill="#FAFAFA"/>
<path d="M43.3973 5.12234V25.1848H37.8481V5.12234H43.3973ZM37.4924 0.249023C37.4924 2.02761 38.9509 3.4149 40.6583 3.4149C42.4013 3.4149 43.7886 1.99204 43.7886 0.249023H37.4924Z" fill="#FAFAFA"/>
<path d="M56.4167 19.6356V25.1847H50.7253C50.6541 25.1847 50.583 25.1847 50.5474 25.1847C49.089 25.1136 47.9507 24.1532 47.9507 22.9793V5.12231H53.4999V19.6356H56.4167Z" fill="#FAFAFA"/>
<path d="M58.1953 15.3314C58.1953 9.74663 62.2505 5.12231 68.2621 5.12231C74.416 5.12231 77.9732 9.67549 77.9732 14.9401V16.5764H63.5666C63.9579 19.1731 65.9499 20.8806 68.7245 20.8806C70.8233 20.8806 72.6018 19.849 73.4911 18.0704L77.7597 20.2403C76.0879 23.7263 72.8508 25.7183 68.7601 25.7183C62.7485 25.7183 58.1953 21.5209 58.1953 15.3314ZM72.4596 13.5172C72.2106 11.5252 70.5743 9.99564 68.2265 9.99564C65.8076 9.99564 64.2069 11.5608 63.8156 13.5172H72.4596Z" fill="#FAFAFA"/>
<path d="M79.5027 15.3314C79.5027 9.74663 83.5579 5.12231 89.5695 5.12231C95.7234 5.12231 99.2805 9.67549 99.2805 14.9401V16.5764H84.874C85.2653 19.1731 87.2573 20.8806 90.0319 20.8806C92.1306 20.8806 93.9092 19.849 94.7985 18.0704L99.0671 20.2403C97.3952 23.7263 94.1582 25.7183 90.0675 25.7183C84.0203 25.7183 79.5027 21.5209 79.5027 15.3314ZM93.7314 13.5172C93.4824 11.5252 91.8461 9.99564 89.4983 9.99564C87.0795 9.99564 85.4787 11.5608 85.0874 13.5172H93.7314Z" fill="#FAFAFA"/>
<path d="M102.553 25.2204V0.249023H108.102V13.375H109.952C110.166 13.0193 110.379 12.6635 110.664 12.3078L116.035 5.83378H122.651L114.576 15.4737L122.58 25.2204H115.964L110.592 18.6396C110.308 18.2839 110.094 17.8926 109.881 17.5013H108.102V25.2204H102.553Z" fill="#FAFAFA"/>
<path d="M121.833 15.3314C121.833 9.74663 125.888 5.12231 131.9 5.12231C138.054 5.12231 141.611 9.67549 141.611 14.9401V16.5764H127.204C127.596 19.1731 129.588 20.8806 132.362 20.8806C134.461 20.8806 136.24 19.849 137.129 18.0704L141.397 20.2403C139.726 23.7263 136.489 25.7183 132.398 25.7183C126.351 25.7183 121.833 21.5209 121.833 15.3314ZM136.062 13.5172C135.813 11.5252 134.176 9.99564 131.829 9.99564C129.41 9.99564 127.809 11.5608 127.418 13.5172H136.062Z" fill="#FAFAFA"/>
<path d="M143.105 15.3314C143.105 9.74663 147.16 5.12231 153.172 5.12231C159.326 5.12231 162.883 9.67549 162.883 14.9401V16.5764H148.476C148.868 19.1731 150.86 20.8806 153.634 20.8806C155.733 20.8806 157.512 19.849 158.401 18.0704L162.669 20.2403C160.998 23.7263 157.761 25.7183 153.67 25.7183C147.658 25.7183 143.105 21.5209 143.105 15.3314ZM157.369 13.5172C157.12 11.5252 155.484 9.99564 153.136 9.99564C150.717 9.99564 149.117 11.5608 148.725 13.5172H157.369Z" fill="#FAFAFA"/>
</g>
<defs>
<clipPath id="clip0_722_754">
<rect width="162.883" height="25.6828" fill="white"/>
</clipPath>
</defs>
</svg>
