<svg width="33" height="27" viewBox="0 0 33 27" fill="none" xmlns="http://www.w3.org/2000/svg">
<path d="M3.03572 18.7273L29.9643 18.7273C30.5363 18.7273 31 18.2592 31 17.6818L31 3.04548C31 2.46809 30.5363 2.00002 29.9643 2.00002L3.03572 2.00002C2.46371 2.00002 2 2.46809 2 3.04548L2 17.6818C2 18.2592 2.46371 18.7273 3.03572 18.7273Z" stroke="white" stroke-width="2.11607" stroke-linejoin="round"/>
<path d="M4.07153 21.8638H28.9287M6.14296 25.0001H26.8572" stroke="white" stroke-width="2.11607" stroke-linecap="round" stroke-linejoin="round"/>
<path d="M16.5001 15.591C19.3602 15.591 21.6787 13.2507 21.6787 10.3637C21.6787 7.4768 19.3602 5.13647 16.5001 5.13647C13.6401 5.13647 11.3215 7.4768 11.3215 10.3637C11.3215 13.2507 13.6401 15.591 16.5001 15.591Z" stroke="white" stroke-width="2.11607" stroke-linecap="round" stroke-linejoin="round"/>
<path d="M31 7.22727C29.6266 7.22727 28.3094 6.67654 27.3382 5.69624C26.367 4.71594 25.8214 3.38636 25.8214 2M2 7.22727C2.68006 7.22727 3.35346 7.09207 3.98175 6.82937C4.61005 6.56668 5.18093 6.18164 5.6618 5.69624C6.14268 5.21084 6.52413 4.63459 6.78438 4.00039C7.04462 3.36619 7.17857 2.68646 7.17857 2M31 13.5C29.6266 13.5 28.3094 14.0507 27.3382 15.031C26.367 16.0113 25.8214 17.3409 25.8214 18.7273M2 13.5C2.68006 13.5 3.35346 13.6352 3.98175 13.8979C4.61005 14.1606 5.18093 14.5456 5.6618 15.031C6.14268 15.5164 6.52413 16.0927 6.78438 16.7269C7.04462 17.3611 7.17857 18.0408 7.17857 18.7273" stroke="white" stroke-width="2.11607" stroke-linecap="round" stroke-linejoin="round"/>
</svg>
