<svg width="25" height="23" viewBox="0 0 25 23" fill="none" xmlns="http://www.w3.org/2000/svg">
<path d="M23.8257 9.03568H23.0042V4.10713C23.0042 3.88927 22.9177 3.68034 22.7636 3.52629C22.6096 3.37224 22.4007 3.2857 22.1828 3.2857H2.4686C2.2741 3.28887 2.08478 3.22291 1.93435 3.09957C1.78393 2.97622 1.68216 2.80349 1.64717 2.61213V2.31642C1.68216 2.12506 1.78393 1.95233 1.93435 1.82898C2.08478 1.70564 2.2741 1.63968 2.4686 1.64285H21.8378C22.0557 1.64285 22.2646 1.55631 22.4186 1.40226C22.5727 1.24821 22.6592 1.03928 22.6592 0.821425C22.6592 0.60357 22.5727 0.394637 22.4186 0.24059C22.2646 0.0865429 22.0557 0 21.8378 0H2.4686C1.81503 0 1.18824 0.259628 0.726094 0.72177C0.263953 1.18391 0.00432418 1.81071 0.00432418 2.46428C-0.00144139 2.56276 -0.00144139 2.6615 0.00432418 2.75999V19.6567C0.0075485 20.099 0.0978568 20.5363 0.270092 20.9437C0.442328 21.351 0.693118 21.7205 1.00814 22.0309C1.32317 22.3414 1.69625 22.5867 2.1061 22.753C2.51595 22.9193 2.95454 23.0032 3.39681 22.9999H22.1828C22.4007 22.9999 22.6096 22.9134 22.7636 22.7593C22.9177 22.6053 23.0042 22.3963 23.0042 22.1785V17.2499H23.8257C24.0435 17.2499 24.2524 17.1634 24.4065 17.0093C24.5605 16.8553 24.6471 16.6464 24.6471 16.4285V9.8571C24.6471 9.63925 24.5605 9.43032 24.4065 9.27627C24.2524 9.12222 24.0435 9.03568 23.8257 9.03568ZM21.3614 21.3571H3.39681C2.93994 21.3615 2.4998 21.1853 2.17214 20.8669C1.84448 20.5484 1.65582 20.1135 1.64717 19.6567V4.82998C1.91381 4.90725 2.19125 4.94054 2.4686 4.92855H21.3614V9.03568H15.6114C14.5221 9.03568 13.4775 9.46839 12.7072 10.2386C11.937 11.0089 11.5043 12.0535 11.5043 13.1428C11.5043 14.2321 11.937 15.2767 12.7072 16.047C13.4775 16.8172 14.5221 17.2499 15.6114 17.2499H21.3614V21.3571ZM23.0042 15.6071H15.6114C14.9578 15.6071 14.331 15.3475 13.8689 14.8853C13.4068 14.4232 13.1471 13.7964 13.1471 13.1428C13.1471 12.4892 13.4068 11.8624 13.8689 11.4003C14.331 10.9382 14.9578 10.6785 15.6114 10.6785H23.0042V15.6071Z" fill="white"/>
<path d="M16.441 14.3749C17.1215 14.3749 17.6731 13.8233 17.6731 13.1428C17.6731 12.4623 17.1215 11.9106 16.441 11.9106C15.7605 11.9106 15.2089 12.4623 15.2089 13.1428C15.2089 13.8233 15.7605 14.3749 16.441 14.3749Z" fill="white"/>
</svg>
